<mxfile host="app.diagrams.net" modified="2020-12-28T07:07:38.120Z" agent="5.0 (Windows NT 10.0; Win64; x64) AppleWebKit/537.36 (KHTML, like Gecko) Chrome/87.0.4280.88 Safari/537.36" etag="LrYhudblXHr6C2U2n6VO" version="14.1.2" type="github">
  <diagram id="C5RBs43oDa-KdzZeNtuy" name="Page-1">
    <mxGraphModel dx="1422" dy="762" grid="1" gridSize="10" guides="1" tooltips="1" connect="1" arrows="1" fold="1" page="1" pageScale="1" pageWidth="827" pageHeight="1169" math="0" shadow="0">
      <root>
        <mxCell id="WIyWlLk6GJQsqaUBKTNV-0" />
        <mxCell id="WIyWlLk6GJQsqaUBKTNV-1" parent="WIyWlLk6GJQsqaUBKTNV-0" />
        <mxCell id="OFlqZf7biBh7wSJF_cy4-24" style="edgeStyle=orthogonalEdgeStyle;rounded=0;orthogonalLoop=1;jettySize=auto;html=1;entryX=0.5;entryY=0;entryDx=0;entryDy=0;" edge="1" parent="WIyWlLk6GJQsqaUBKTNV-1" source="OFlqZf7biBh7wSJF_cy4-0" target="OFlqZf7biBh7wSJF_cy4-10">
          <mxGeometry relative="1" as="geometry" />
        </mxCell>
        <mxCell id="OFlqZf7biBh7wSJF_cy4-0" value="api" style="rounded=0;whiteSpace=wrap;html=1;" vertex="1" parent="WIyWlLk6GJQsqaUBKTNV-1">
          <mxGeometry x="120" y="60" width="120" height="60" as="geometry" />
        </mxCell>
        <mxCell id="OFlqZf7biBh7wSJF_cy4-25" style="edgeStyle=orthogonalEdgeStyle;rounded=0;orthogonalLoop=1;jettySize=auto;html=1;entryX=0.5;entryY=0;entryDx=0;entryDy=0;" edge="1" parent="WIyWlLk6GJQsqaUBKTNV-1" source="OFlqZf7biBh7wSJF_cy4-10" target="OFlqZf7biBh7wSJF_cy4-12">
          <mxGeometry relative="1" as="geometry" />
        </mxCell>
        <mxCell id="OFlqZf7biBh7wSJF_cy4-10" value="接收并验证参数" style="rounded=1;whiteSpace=wrap;html=1;" vertex="1" parent="WIyWlLk6GJQsqaUBKTNV-1">
          <mxGeometry x="120" y="160" width="120" height="60" as="geometry" />
        </mxCell>
        <mxCell id="OFlqZf7biBh7wSJF_cy4-15" style="edgeStyle=orthogonalEdgeStyle;rounded=0;orthogonalLoop=1;jettySize=auto;html=1;entryX=0.5;entryY=0;entryDx=0;entryDy=0;" edge="1" parent="WIyWlLk6GJQsqaUBKTNV-1" source="OFlqZf7biBh7wSJF_cy4-12" target="OFlqZf7biBh7wSJF_cy4-14">
          <mxGeometry relative="1" as="geometry" />
        </mxCell>
        <mxCell id="OFlqZf7biBh7wSJF_cy4-12" value="获取用户信息" style="rounded=1;whiteSpace=wrap;html=1;" vertex="1" parent="WIyWlLk6GJQsqaUBKTNV-1">
          <mxGeometry x="120" y="260" width="120" height="60" as="geometry" />
        </mxCell>
        <mxCell id="OFlqZf7biBh7wSJF_cy4-20" style="edgeStyle=orthogonalEdgeStyle;rounded=0;orthogonalLoop=1;jettySize=auto;html=1;entryX=0.5;entryY=0;entryDx=0;entryDy=0;" edge="1" parent="WIyWlLk6GJQsqaUBKTNV-1" source="OFlqZf7biBh7wSJF_cy4-13" target="OFlqZf7biBh7wSJF_cy4-19">
          <mxGeometry relative="1" as="geometry" />
        </mxCell>
        <mxCell id="OFlqZf7biBh7wSJF_cy4-13" value="组合key" style="rounded=1;whiteSpace=wrap;html=1;" vertex="1" parent="WIyWlLk6GJQsqaUBKTNV-1">
          <mxGeometry x="120" y="420" width="120" height="60" as="geometry" />
        </mxCell>
        <mxCell id="OFlqZf7biBh7wSJF_cy4-16" value="否（udid）" style="edgeStyle=orthogonalEdgeStyle;rounded=0;orthogonalLoop=1;jettySize=auto;html=1;entryX=1;entryY=0.5;entryDx=0;entryDy=0;" edge="1" parent="WIyWlLk6GJQsqaUBKTNV-1">
          <mxGeometry x="0.0222" relative="1" as="geometry">
            <mxPoint x="241" y="450" as="targetPoint" />
            <mxPoint x="221" y="365" as="sourcePoint" />
            <Array as="points">
              <mxPoint x="301" y="365" />
              <mxPoint x="301" y="450" />
            </Array>
            <mxPoint as="offset" />
          </mxGeometry>
        </mxCell>
        <mxCell id="OFlqZf7biBh7wSJF_cy4-17" value="是（userid）" style="edgeStyle=orthogonalEdgeStyle;rounded=0;orthogonalLoop=1;jettySize=auto;html=1;entryX=0;entryY=0.5;entryDx=0;entryDy=0;" edge="1" parent="WIyWlLk6GJQsqaUBKTNV-1" source="OFlqZf7biBh7wSJF_cy4-14" target="OFlqZf7biBh7wSJF_cy4-13">
          <mxGeometry relative="1" as="geometry">
            <mxPoint x="60" y="450" as="targetPoint" />
            <Array as="points">
              <mxPoint x="70" y="365" />
              <mxPoint x="70" y="450" />
            </Array>
          </mxGeometry>
        </mxCell>
        <mxCell id="OFlqZf7biBh7wSJF_cy4-14" value="判定登录" style="rhombus;whiteSpace=wrap;html=1;" vertex="1" parent="WIyWlLk6GJQsqaUBKTNV-1">
          <mxGeometry x="140" y="350" width="80" height="30" as="geometry" />
        </mxCell>
        <mxCell id="OFlqZf7biBh7wSJF_cy4-22" style="edgeStyle=orthogonalEdgeStyle;rounded=0;orthogonalLoop=1;jettySize=auto;html=1;entryX=0.5;entryY=0;entryDx=0;entryDy=0;" edge="1" parent="WIyWlLk6GJQsqaUBKTNV-1" source="OFlqZf7biBh7wSJF_cy4-19" target="OFlqZf7biBh7wSJF_cy4-21">
          <mxGeometry relative="1" as="geometry" />
        </mxCell>
        <mxCell id="OFlqZf7biBh7wSJF_cy4-19" value="组合点赞数据" style="rounded=1;whiteSpace=wrap;html=1;" vertex="1" parent="WIyWlLk6GJQsqaUBKTNV-1">
          <mxGeometry x="120" y="510" width="120" height="60" as="geometry" />
        </mxCell>
        <mxCell id="OFlqZf7biBh7wSJF_cy4-28" style="edgeStyle=orthogonalEdgeStyle;rounded=0;orthogonalLoop=1;jettySize=auto;html=1;entryX=0.5;entryY=0;entryDx=0;entryDy=0;" edge="1" parent="WIyWlLk6GJQsqaUBKTNV-1" source="OFlqZf7biBh7wSJF_cy4-21" target="OFlqZf7biBh7wSJF_cy4-36">
          <mxGeometry relative="1" as="geometry">
            <mxPoint x="180" y="710" as="targetPoint" />
          </mxGeometry>
        </mxCell>
        <mxCell id="OFlqZf7biBh7wSJF_cy4-21" value="请求点赞微服务(sy:go:like[v1/like/do])" style="rounded=1;whiteSpace=wrap;html=1;" vertex="1" parent="WIyWlLk6GJQsqaUBKTNV-1">
          <mxGeometry x="120" y="610" width="120" height="60" as="geometry" />
        </mxCell>
        <mxCell id="OFlqZf7biBh7wSJF_cy4-36" value="结束&lt;br&gt;返回" style="rounded=0;whiteSpace=wrap;html=1;" vertex="1" parent="WIyWlLk6GJQsqaUBKTNV-1">
          <mxGeometry x="120" y="730" width="120" height="60" as="geometry" />
        </mxCell>
      </root>
    </mxGraphModel>
  </diagram>
</mxfile>
